<svg width="60" height="60" viewBox="0 0 60 60" fill="none" xmlns="http://www.w3.org/2000/svg">
<rect width="60" height="60" rx="30" fill="white" fill-opacity="0.1"/>
<path d="M36 26C37.6569 26 39 24.6569 39 23C39 21.3431 37.6569 20 36 20C34.3431 20 33 21.3431 33 23C33 24.6569 34.3431 26 36 26Z" stroke="#EAE68B" stroke-width="1.5" stroke-linecap="round" stroke-linejoin="round"/>
<path d="M24 40C25.6569 40 27 38.6569 27 37C27 35.3431 25.6569 34 24 34C22.3431 34 21 35.3431 21 37C21 38.6569 22.3431 40 24 40Z" stroke="#EAE68B" stroke-width="1.5" stroke-linecap="round" stroke-linejoin="round"/>
<path d="M30 23H26.5C24.567 23 23 24.567 23 26.5C23 28.433 24.567 30 26.5 30H33.5C35.433 30 37 31.567 37 33.5C37 35.433 35.433 37 33.5 37H30" stroke="#EAE68B" stroke-width="1.5" stroke-linecap="round" stroke-linejoin="round"/>
</svg>
