<svg width="152" height="22" viewBox="0 0 152 22" fill="none" xmlns="http://www.w3.org/2000/svg">
<path d="M8.41144 2.07837H19.1588L11.2573 13.79H0.509949L8.41144 2.07837Z" fill="#1F253F"/>
<path d="M8.88203 14.8756L5.82159 19.4118H17.0788L24.9803 7.7002H16.6718L11.8307 14.8756H8.88203Z" fill="#1F253F"/>
<path d="M46.572 17H42.972L38.598 4.94H41.64L44.718 13.976H44.898L47.922 4.94H50.946L46.572 17ZM60.8035 17H51.6055V4.94H60.8035V7.37H54.3055V9.728H60.5335V12.14H54.3055V14.57H60.8035V17ZM64.9227 17H62.2227V4.94H65.1027L69.0087 10.988L70.0167 12.608H70.1967L70.1607 10.988V4.94H72.8607V17H69.9807L66.2367 11.294L65.0667 9.44H64.8867L64.9227 11.294V17ZM80.0593 17H77.3593V7.37H73.4713V4.94H83.9473V7.37H80.0593V17ZM89.854 17.18C86.308 17.18 84.67 15.74 84.67 13.076V12.842H87.316V13.022C87.316 14.354 87.802 14.732 89.98 14.732C91.51 14.732 91.888 14.426 91.888 13.616C91.888 12.806 91.708 12.518 90.016 12.23L87.892 11.852C85.588 11.456 84.616 10.286 84.616 8.414C84.616 6.578 85.966 4.76 89.422 4.76C92.86 4.76 94.3 6.542 94.3 8.936V9.08H91.636V8.882C91.636 7.622 91.114 7.208 89.332 7.208C87.784 7.208 87.298 7.55 87.298 8.306C87.298 9.08 87.622 9.26 89.026 9.53L91.168 9.944C93.706 10.43 94.57 11.762 94.57 13.526C94.57 15.452 93.274 17.18 89.854 17.18ZM98.3563 17H95.6563V4.94H101.2C103.792 4.94 105.646 6.506 105.646 9.188C105.646 11.888 103.792 13.418 101.2 13.418H98.3563V17ZM101.308 7.37H98.3563V11.006H101.308C102.55 11.006 102.964 10.628 102.964 9.188C102.964 7.73 102.55 7.37 101.308 7.37ZM109.431 17H106.731V4.94H109.431V9.728H114.687V4.94H117.387V17H114.687V12.14H109.431V17ZM128.321 17H119.123V4.94H128.321V7.37H121.823V9.728H128.051V12.14H121.823V14.57H128.321V17ZM132.44 17H129.74V4.94H135.284C138.164 4.94 139.766 6.272 139.766 8.612C139.766 10.574 138.794 11.744 136.724 11.924V12.104C137.768 12.428 138.272 13.058 138.74 13.976L140.27 17H137.12L135.698 14.21C135.158 13.166 134.798 12.716 133.52 12.716H132.44V17ZM132.44 7.37V10.484H135.41C136.67 10.484 137.084 10.106 137.084 8.918C137.084 7.766 136.67 7.37 135.41 7.37H132.44ZM150.241 17H141.043V4.94H150.241V7.37H143.743V9.728H149.971V12.14H143.743V14.57H150.241V17Z" fill="#1F253F"/>
</svg>
