<svg width="97" height="35" viewBox="0 0 97 35" fill="none" xmlns="http://www.w3.org/2000/svg">
<g clip-path="url(#clip0_75_339)">
<path d="M57.4914 12.6791C62.5448 12.6791 66.1417 16.5242 66.1417 21.4073C66.1417 26.369 62.5065 30.1267 57.4914 30.1267C52.4743 30.1267 48.8411 26.4054 48.8411 21.4073C48.8411 16.4888 52.4625 12.6791 57.4914 12.6791ZM75.6547 12.6791C80.708 12.6791 84.305 16.5242 84.305 21.4073C84.305 26.369 80.6678 30.1267 75.6547 30.1267C70.6375 30.1267 67.0044 26.4054 67.0044 21.4073C67.0044 16.4888 70.6258 12.6791 75.6547 12.6791ZM104.878 12.6959C107.925 12.6959 110.838 14.5389 110.838 18.9609V29.6491H106.518V19.8662C106.518 18.0901 105.647 16.7504 103.604 16.7504C101.695 16.7504 100.556 18.2248 100.556 20.0009V29.6501H96.1369V19.8662C96.1369 18.0901 95.233 16.7504 93.2227 16.7504C91.2801 16.7504 90.1411 18.1913 90.1411 20.0009V29.6501H85.6887V13.1648H89.9416V15.1758C90.8454 13.5677 92.956 12.6959 94.7637 12.6959C97.0083 12.6959 98.8161 13.668 99.6531 15.4431C100.958 13.4321 102.701 12.6959 104.878 12.6959ZM47.4268 5.39185V29.6491H42.9733V5.39185H47.4268ZM75.6547 16.6579C73.0374 16.6579 70.9081 18.7888 70.9081 21.4062C70.9081 24.0239 73.0374 26.1548 75.6547 26.1548C78.2718 26.1548 80.4013 24.0239 80.4013 21.4062C80.4003 18.7888 78.2709 16.6579 75.6547 16.6579ZM57.4914 16.7139C54.9037 16.7139 52.7988 18.8192 52.7988 21.4083C52.7988 23.9973 54.9037 26.1027 57.4914 26.1027C60.0791 26.1027 62.1829 23.9973 62.1829 21.4083C62.1829 18.8192 60.0791 16.7139 57.4914 16.7139Z" fill="#A1A3B0"/>
<path d="M33.9972 15.677H24.3009L32.6984 10.8287L30.8542 7.63371L22.4568 12.4819L27.304 4.08519L24.1089 2.23996L19.2618 10.6367V0.941162H15.5733V10.6376L10.7243 2.23996L7.53024 4.08426L12.3783 12.481L3.9809 7.63371L2.13666 10.8278L10.5341 15.6761H0.837891V19.3647H10.5332L2.13666 24.2129L3.9809 27.408L12.3774 22.5606L7.52932 30.9573L10.7243 32.8016L15.5724 24.404V34.1005H19.2609V24.4049L24.108 32.8016L27.3029 30.9573L22.4549 22.5597L30.8523 27.408L32.6966 24.2129L24.3001 19.3655H33.9953V15.677H33.9972ZM17.4175 22.5374C14.6363 22.5374 12.382 20.2831 12.382 17.5018C12.382 14.7205 14.6363 12.4662 17.4175 12.4662C20.1988 12.4662 22.453 14.7205 22.453 17.5018C22.453 20.2831 20.1988 22.5374 17.4175 22.5374Z" fill="#A1A3B0"/>
</g>
<defs>
<clipPath id="clip0_75_339">
<rect width="110" height="33.3008" fill="white" transform="translate(0.837891 0.941162)"/>
</clipPath>
</defs>
</svg>
