<svg width="17" height="17" viewBox="0 0 17 17" fill="none" xmlns="http://www.w3.org/2000/svg">
<path d="M10.3284 6.07499C10.4248 6.07544 10.5172 6.11394 10.5854 6.18213C10.6536 6.25032 10.6921 6.34268 10.6925 6.43911L10.6925 9.87421C10.6943 9.9231 10.6861 9.97185 10.6686 10.0175C10.6511 10.0632 10.6245 10.1049 10.5905 10.1401C10.5566 10.1753 10.5158 10.2033 10.4708 10.2224C10.4258 10.2416 10.3773 10.2514 10.3284 10.2514C10.2795 10.2514 10.2311 10.2416 10.186 10.2224C10.141 10.2033 10.1003 10.1753 10.0663 10.1401C10.0323 10.1049 10.0057 10.0632 9.98822 10.0175C9.9707 9.97185 9.96256 9.9231 9.96429 9.87421L9.96429 7.3185L6.46393 10.8189C6.3956 10.8872 6.30293 10.9256 6.2063 10.9256C6.10967 10.9256 6.01699 10.8872 5.94866 10.8189C5.88034 10.7505 5.84195 10.6579 5.84195 10.5612C5.84195 10.4646 5.88034 10.3719 5.94866 10.3036L9.44902 6.80323L6.89332 6.80323C6.79897 6.7999 6.7096 6.76008 6.64403 6.69216C6.57846 6.62424 6.54182 6.53352 6.54182 6.43911C6.54182 6.34471 6.57846 6.25399 6.64403 6.18607C6.7096 6.11814 6.79897 6.07832 6.89331 6.07499L10.3284 6.07499Z" fill="#1F253F"/>
</svg>
