<svg width="17" height="17" viewBox="0 0 17 17" fill="none" xmlns="http://www.w3.org/2000/svg">
<path d="M10.8169 6.07499C10.9133 6.07544 11.0057 6.11394 11.0739 6.18213C11.142 6.25032 11.1805 6.34268 11.181 6.43911L11.181 9.87421C11.1827 9.9231 11.1746 9.97185 11.1571 10.0175C11.1395 10.0632 11.113 10.1049 11.079 10.1401C11.045 10.1753 11.0043 10.2033 10.9593 10.2224C10.9142 10.2416 10.8658 10.2514 10.8169 10.2514C10.7679 10.2514 10.7195 10.2416 10.6745 10.2224C10.6294 10.2033 10.5887 10.1753 10.5547 10.1401C10.5208 10.1049 10.4942 10.0632 10.4767 10.0175C10.4592 9.97185 10.451 9.9231 10.4528 9.87421L10.4528 7.3185L6.95239 10.8189C6.88406 10.8872 6.79139 10.9256 6.69476 10.9256C6.59813 10.9256 6.50546 10.8872 6.43713 10.8189C6.3688 10.7505 6.33041 10.6579 6.33041 10.5612C6.33041 10.4646 6.3688 10.3719 6.43713 10.3036L9.93749 6.80323L7.38178 6.80323C7.28743 6.7999 7.19806 6.76008 7.1325 6.69216C7.06693 6.62424 7.03029 6.53352 7.03029 6.43911C7.03029 6.34471 7.06693 6.25399 7.1325 6.18607C7.19806 6.11814 7.28743 6.07832 7.38178 6.07499L10.8169 6.07499Z" fill="white"/>
</svg>
